<svg width="58" height="58" viewBox="0 0 58 58" fill="none" xmlns="http://www.w3.org/2000/svg">
<circle cx="29.194" cy="29.1939" r="28.597" fill="#27CD40"/>
<path d="M25.6195 41.1092H32.7687C38.7264 41.1092 41.1095 38.7261 41.1095 32.7684V25.6191C41.1095 19.6614 38.7264 17.2783 32.7687 17.2783H25.6195C19.6618 17.2783 17.2787 19.6614 17.2787 25.6191V32.7684C17.2787 38.7261 19.6618 41.1092 25.6195 41.1092Z" stroke="white" stroke-width="2.68097" stroke-linecap="round" stroke-linejoin="round"/>
<path d="M25.7386 29.1937V27.4302C25.7386 25.1544 27.3472 24.2369 29.3132 25.3689L30.8384 26.2506L32.3636 27.1323C34.3296 28.2643 34.3296 30.1231 32.3636 31.2551L30.8384 32.1368L29.3132 33.0186C27.3472 34.1505 25.7386 33.2211 25.7386 30.9572V29.1937Z" stroke="white" stroke-width="2.68097" stroke-miterlimit="10" stroke-linecap="round" stroke-linejoin="round"/>
</svg>
