<svg width="202" height="67" viewBox="0 0 202 67" fill="none" xmlns="http://www.w3.org/2000/svg">
<rect x="0.112503" width="201" height="67" rx="11.725" fill="#0C0D10"/>
<path d="M136.668 32.1616V35.9991H134.263V38.5156H136.668V47.0665C136.668 49.9863 137.989 51.1542 141.312 51.1542C141.896 51.1542 142.452 51.0847 142.939 51.0013V48.5125C142.522 48.5542 142.258 48.582 141.799 48.582C140.311 48.582 139.658 47.8868 139.658 46.3018V38.5156H142.939V35.9991H139.658V32.1616H136.668Z" fill="white"/>
<path d="M151.404 51.3628C155.826 51.3628 158.537 48.4012 158.537 43.4932C158.537 38.613 155.812 35.6376 151.404 35.6376C146.983 35.6376 144.258 38.613 144.258 43.4932C144.258 48.4012 146.969 51.3628 151.404 51.3628ZM151.404 48.7071C148.804 48.7071 147.344 46.8023 147.344 43.4932C147.344 40.2119 148.804 38.2932 151.404 38.2932C153.99 38.2932 155.464 40.2119 155.464 43.4932C155.464 46.7884 153.99 48.7071 151.404 48.7071Z" fill="white"/>
<path d="M160.857 51.0708H163.846V42.1306C163.846 40.0033 165.445 38.5713 167.711 38.5713C168.239 38.5713 169.129 38.6686 169.38 38.752V35.8044C169.06 35.721 168.49 35.6793 168.045 35.6793C166.07 35.6793 164.388 36.7638 163.957 38.2515H163.735V35.9295H160.857V51.0708Z" fill="white"/>
<path d="M176.802 38.1819C179.013 38.1819 180.459 39.7253 180.528 42.1028H172.881C173.048 39.7392 174.591 38.1819 176.802 38.1819ZM180.514 46.9831C179.958 48.1649 178.721 48.8184 176.913 48.8184C174.522 48.8184 172.978 47.136 172.881 44.4804V44.3135H183.573V43.2707C183.573 38.5156 181.029 35.6376 176.816 35.6376C172.547 35.6376 169.836 38.7103 169.836 43.5488C169.836 48.3873 172.492 51.3628 176.83 51.3628C180.292 51.3628 182.711 49.6943 183.392 46.9831H180.514Z" fill="white"/>
<path d="M117.065 45.4794C117.295 49.1974 120.394 51.5752 125.005 51.5752C129.934 51.5752 133.018 49.0821 133.018 45.1047C133.018 41.9775 131.26 40.2482 126.994 39.2538L124.703 38.6918C121.993 38.0577 120.898 37.2075 120.898 35.7232C120.898 33.8498 122.599 32.6248 125.149 32.6248C127.57 32.6248 129.242 33.8209 129.545 35.7376H132.686C132.499 32.2357 129.415 29.7715 125.193 29.7715C120.653 29.7715 117.627 32.2357 117.627 35.9393C117.627 38.9945 119.342 40.8102 123.103 41.6893L125.783 42.3378C128.536 42.9863 129.746 43.9374 129.746 45.5226C129.746 47.3672 127.844 48.7074 125.25 48.7074C122.469 48.7074 120.538 47.4536 120.264 45.4794H117.065Z" fill="white"/>
<path d="M86.0986 35.6793C84.0408 35.6793 82.2611 36.7081 81.3435 38.4322H81.121V35.9295H78.2429V56.104H81.2322V48.7767H81.4686C82.2611 50.3756 83.9713 51.321 86.1264 51.321C89.9499 51.321 92.3831 48.3039 92.3831 43.4932C92.3831 38.6825 89.9499 35.6793 86.0986 35.6793ZM85.2504 48.6376C82.7478 48.6376 81.1766 46.6633 81.1766 43.5071C81.1766 40.337 82.7478 38.3627 85.2643 38.3627C87.7948 38.3627 89.3104 40.2953 89.3104 43.4932C89.3104 46.705 87.7948 48.6376 85.2504 48.6376Z" fill="white"/>
<path d="M102.843 35.6793C100.785 35.6793 99.0058 36.7081 98.0881 38.4322H97.8656V35.9295H94.9876V56.104H97.9769V48.7767H98.2132C99.0058 50.3756 100.716 51.321 102.871 51.321C106.695 51.321 109.128 48.3039 109.128 43.4932C109.128 38.6825 106.695 35.6793 102.843 35.6793ZM101.995 48.6376C99.4924 48.6376 97.9213 46.6633 97.9213 43.5071C97.9213 40.337 99.4924 38.3627 102.009 38.3627C104.539 38.3627 106.055 40.2953 106.055 43.4932C106.055 46.705 104.539 48.6376 101.995 48.6376Z" fill="white"/>
<path d="M72.8796 51.0708H76.3094L68.8013 30.2759H65.3283L57.8202 51.0708H61.1347L63.0513 45.5514H70.9773L72.8796 51.0708ZM66.8991 34.0515H67.144L70.1559 42.8422H63.8728L66.8991 34.0515Z" fill="white"/>
<path d="M59.8281 14.5908V24.6224H63.4501C66.4394 24.6224 68.1704 22.7801 68.1704 19.5753C68.1704 16.4191 66.4255 14.5908 63.4501 14.5908H59.8281ZM61.3854 16.0089H63.2763C65.3549 16.0089 66.5854 17.3298 66.5854 19.5961C66.5854 21.8972 65.3758 23.2042 63.2763 23.2042H61.3854V16.0089Z" fill="white"/>
<path d="M73.4719 24.7683C75.6827 24.7683 77.0383 23.2876 77.0383 20.8336C77.0383 18.3934 75.6757 16.9057 73.4719 16.9057C71.2612 16.9057 69.8987 18.3934 69.8987 20.8336C69.8987 23.2876 71.2543 24.7683 73.4719 24.7683ZM73.4719 23.4405C72.1719 23.4405 71.442 22.4881 71.442 20.8336C71.442 19.1929 72.1719 18.2336 73.4719 18.2336C74.765 18.2336 75.5019 19.1929 75.5019 20.8336C75.5019 22.4812 74.765 23.4405 73.4719 23.4405Z" fill="white"/>
<path d="M88.5826 17.0517H87.0879L85.7393 22.8288H85.6211L84.0639 17.0517H82.6318L81.0746 22.8288H80.9633L79.6077 17.0517H78.0922L80.1778 24.6224H81.7141L83.2714 19.0469H83.3895L84.9537 24.6224H86.504L88.5826 17.0517Z" fill="white"/>
<path d="M90.3039 24.6224H91.7986V20.194C91.7986 19.0122 92.5007 18.2753 93.6061 18.2753C94.7114 18.2753 95.2397 18.8801 95.2397 20.0967V24.6224H96.7344V19.7213C96.7344 17.9207 95.8029 16.9057 94.1135 16.9057C92.9734 16.9057 92.2226 17.4132 91.8542 18.2544H91.7429V17.0517H90.3039V24.6224Z" fill="white"/>
<path d="M99.0883 24.6224H100.583V14.0972H99.0883V24.6224Z" fill="white"/>
<path d="M106.204 24.7683C108.415 24.7683 109.771 23.2876 109.771 20.8336C109.771 18.3934 108.408 16.9057 106.204 16.9057C103.994 16.9057 102.631 18.3934 102.631 20.8336C102.631 23.2876 103.987 24.7683 106.204 24.7683ZM106.204 23.4405C104.904 23.4405 104.174 22.4881 104.174 20.8336C104.174 19.1929 104.904 18.2336 106.204 18.2336C107.497 18.2336 108.234 19.1929 108.234 20.8336C108.234 22.4812 107.497 23.4405 106.204 23.4405Z" fill="white"/>
<path d="M114.224 23.4892C113.411 23.4892 112.82 23.0929 112.82 22.4116C112.82 21.7443 113.292 21.3897 114.335 21.3202L116.184 21.202V21.8346C116.184 22.7731 115.35 23.4892 114.224 23.4892ZM113.842 24.7475C114.836 24.7475 115.663 24.3165 116.115 23.5587H116.233V24.6224H117.672V19.4501C117.672 17.8512 116.602 16.9057 114.704 16.9057C112.987 16.9057 111.763 17.74 111.61 19.04H113.056C113.223 18.5047 113.8 18.1988 114.634 18.1988C115.656 18.1988 116.184 18.6507 116.184 19.4501V20.1036L114.134 20.2218C112.333 20.333 111.318 21.1186 111.318 22.4812C111.318 23.8646 112.382 24.7475 113.842 24.7475Z" fill="white"/>
<path d="M122.744 24.7475C123.787 24.7475 124.67 24.2539 125.122 23.4266H125.24V24.6224H126.672V14.0972H125.177V18.2544H125.066C124.656 17.4202 123.78 16.9266 122.744 16.9266C120.832 16.9266 119.602 18.4421 119.602 20.8336C119.602 23.232 120.819 24.7475 122.744 24.7475ZM123.168 18.2683C124.42 18.2683 125.205 19.2624 125.205 20.8405C125.205 22.4255 124.427 23.4058 123.168 23.4058C121.903 23.4058 121.145 22.4395 121.145 20.8336C121.145 19.2416 121.91 18.2683 123.168 18.2683Z" fill="white"/>
<path d="M136.364 24.7683C138.575 24.7683 139.931 23.2876 139.931 20.8336C139.931 18.3934 138.568 16.9057 136.364 16.9057C134.154 16.9057 132.791 18.3934 132.791 20.8336C132.791 23.2876 134.147 24.7683 136.364 24.7683ZM136.364 23.4405C135.064 23.4405 134.334 22.4881 134.334 20.8336C134.334 19.1929 135.064 18.2336 136.364 18.2336C137.657 18.2336 138.394 19.1929 138.394 20.8336C138.394 22.4812 137.657 23.4405 136.364 23.4405Z" fill="white"/>
<path d="M141.909 24.6224H143.404V20.194C143.404 19.0122 144.106 18.2753 145.211 18.2753C146.317 18.2753 146.845 18.8801 146.845 20.0967V24.6224H148.34V19.7213C148.34 17.9207 147.408 16.9057 145.719 16.9057C144.579 16.9057 143.828 17.4132 143.46 18.2544H143.348V17.0517H141.909V24.6224Z" fill="white"/>
<path d="M155.224 15.1678V17.0865H154.021V18.3448H155.224V22.6202C155.224 24.0801 155.884 24.6641 157.545 24.6641C157.837 24.6641 158.116 24.6293 158.359 24.5876V23.3432C158.15 23.3641 158.018 23.378 157.789 23.378C157.045 23.378 156.718 23.0304 156.718 22.2378V18.3448H158.359V17.0865H156.718V15.1678H155.224Z" fill="white"/>
<path d="M160.365 24.6224H161.86V20.2009C161.86 19.0539 162.541 18.2822 163.765 18.2822C164.821 18.2822 165.384 18.894 165.384 20.1036V24.6224H166.879V19.7352C166.879 17.9346 165.885 16.9127 164.272 16.9127C163.132 16.9127 162.333 17.4202 161.964 18.2683H161.846V14.0972H160.365V24.6224Z" fill="white"/>
<path d="M172.271 18.1779C173.376 18.1779 174.099 18.9496 174.134 20.1384H170.311C170.394 18.9565 171.166 18.1779 172.271 18.1779ZM174.127 22.5785C173.849 23.1694 173.23 23.4961 172.327 23.4961C171.131 23.4961 170.359 22.655 170.311 21.3271V21.2437H175.657V20.7223C175.657 18.3448 174.384 16.9057 172.278 16.9057C170.144 16.9057 168.788 18.4421 168.788 20.8614C168.788 23.2806 170.116 24.7683 172.285 24.7683C174.016 24.7683 175.226 23.9341 175.566 22.5785H174.127Z" fill="white"/>
<path d="M41.6006 34.004C41.6368 31.1884 43.149 28.5241 45.5478 27.0493C44.0345 24.888 41.4997 23.5177 38.8626 23.4352C36.0499 23.14 33.3231 25.1183 31.8898 25.1183C30.4287 25.1183 28.2219 23.4645 25.8455 23.5134C22.748 23.6135 19.8604 25.3746 18.3534 28.0826C15.1139 33.6912 17.5303 41.934 20.6334 46.4675C22.1859 48.6875 24.0004 51.1673 26.3747 51.0793C28.698 50.983 29.5657 49.5978 32.3702 49.5978C35.1486 49.5978 35.9627 51.0793 38.3851 51.0234C40.8781 50.9829 42.4489 48.7936 43.9469 46.5526C45.0624 44.9708 45.9208 43.2226 46.4903 41.3726C43.5605 40.1335 41.604 37.1851 41.6006 34.004Z" fill="white"/>
<path d="M37.025 20.4537C38.3843 18.8219 39.054 16.7245 38.8918 14.6069C36.8151 14.8251 34.8968 15.8176 33.5191 17.3868C32.172 18.92 31.4709 20.9805 31.6034 23.0171C33.6809 23.0385 35.7232 22.0729 37.025 20.4537Z" fill="white"/>
</svg>
