<svg width="228" height="67" viewBox="0 0 228 67" fill="none" xmlns="http://www.w3.org/2000/svg">
<rect x="0.887482" width="226.125" height="67" rx="8.375" fill="black"/>
<path d="M115.015 36.4329C111.076 36.4329 107.865 39.4295 107.865 43.5567C107.865 47.6588 111.076 50.6805 115.015 50.6805C118.957 50.6805 122.168 47.6588 122.168 43.5567C122.166 39.4295 118.955 36.4329 115.015 36.4329ZM115.015 47.8765C112.856 47.8765 110.995 46.096 110.995 43.5584C110.995 40.9939 112.858 39.2402 115.015 39.2402C117.174 39.2402 119.035 40.9939 119.035 43.5584C119.035 46.0943 117.174 47.8765 115.015 47.8765ZM99.4143 36.4329C95.4747 36.4329 92.2637 39.4295 92.2637 43.5567C92.2637 47.6588 95.4747 50.6805 99.4143 50.6805C103.356 50.6805 106.567 47.6588 106.567 43.5567C106.567 39.4295 103.356 36.4329 99.4143 36.4329ZM99.4143 47.8765C97.2552 47.8765 95.3943 46.096 95.3943 43.5584C95.3943 40.9939 97.2569 39.2402 99.4143 39.2402C101.573 39.2402 103.434 40.9939 103.434 43.5584C103.436 46.0943 101.573 47.8765 99.4143 47.8765ZM80.8587 38.6205V41.6422H88.0913C87.8752 43.3423 87.3091 44.5835 86.4448 45.4461C85.3929 46.498 83.7464 47.6588 80.8587 47.6588C76.4065 47.6588 72.9259 44.0692 72.9259 39.6171C72.9259 35.1649 76.4065 31.5754 80.8587 31.5754C83.2606 31.5754 85.0143 32.5201 86.3091 33.7345L88.4414 31.6022C86.6324 29.8753 84.2321 28.5537 80.8587 28.5537C74.76 28.5537 69.6328 33.5184 69.6328 39.6171C69.6328 45.7158 74.76 50.6805 80.8587 50.6805C84.15 50.6805 86.6341 49.6001 88.5754 47.5767C90.572 45.5801 91.1934 42.7728 91.1934 40.5065C91.1934 39.8064 91.1398 39.1581 91.0309 38.6188H80.8587V38.6205ZM156.75 40.9671C156.157 39.3759 154.348 36.4329 150.651 36.4329C146.981 36.4329 143.931 39.3206 143.931 43.5567C143.931 47.5499 146.954 50.6805 151.001 50.6805C154.266 50.6805 156.155 48.6839 156.939 47.5231L154.51 45.9034C153.701 47.0909 152.594 47.8732 151.001 47.8732C149.41 47.8732 148.276 47.1445 147.547 45.7141L157.073 41.7745L156.75 40.9671ZM147.035 43.3423C146.954 40.5886 149.167 39.1866 150.76 39.1866C152.001 39.1866 153.053 39.808 153.405 40.6975L147.035 43.3423ZM139.291 50.25H142.42V29.3108H139.291V50.25ZM134.162 38.0258H134.055C133.353 37.1883 132.003 36.4329 130.305 36.4329C126.742 36.4329 123.477 39.5635 123.477 43.5852C123.477 47.5784 126.742 50.6821 130.305 50.6821C132.005 50.6821 133.353 49.9267 134.055 49.0641H134.162V50.0892C134.162 52.8144 132.705 54.2717 130.358 54.2717C128.442 54.2717 127.254 52.8965 126.769 51.7357L124.044 52.8697C124.826 54.7574 126.903 57.079 130.358 57.079C134.028 57.079 137.132 54.9199 137.132 49.657V36.8667H134.164V38.0258H134.162ZM130.574 47.8765C128.415 47.8765 126.608 46.0675 126.608 43.5852C126.608 41.0743 128.415 39.2402 130.574 39.2402C132.705 39.2402 134.378 41.0743 134.378 43.5852C134.378 46.0675 132.705 47.8765 130.574 47.8765ZM171.413 29.3108H163.924V50.25H167.047V42.3172H171.411C174.875 42.3172 178.282 39.8097 178.282 35.8148C178.282 31.82 174.876 29.3108 171.413 29.3108ZM171.493 39.4027H167.047V32.2253H171.493C173.83 32.2253 175.156 34.1599 175.156 35.8148C175.156 37.4362 173.83 39.4027 171.493 39.4027ZM190.809 36.3961C188.546 36.3961 186.203 37.3927 185.233 39.602L188.007 40.7594C188.6 39.602 189.705 39.2235 190.863 39.2235C192.479 39.2235 194.122 40.1933 194.149 41.9169V42.1329C193.583 41.8097 192.37 41.3256 190.889 41.3256C187.9 41.3256 184.854 42.9688 184.854 46.039C184.854 48.8413 187.307 50.6453 190.054 50.6453C192.154 50.6453 193.313 49.7023 194.04 48.5968H194.147V50.2131H197.166V42.1849C197.167 38.4697 194.39 36.3961 190.809 36.3961ZM190.43 47.8715C189.409 47.8715 187.98 47.3589 187.98 46.0926C187.98 44.4763 189.759 43.8565 191.295 43.8565C192.667 43.8565 193.315 44.153 194.149 44.5567C193.906 46.498 192.236 47.8715 190.43 47.8715ZM208.157 36.8533L204.574 45.9318H204.467L200.748 36.8533H197.382L202.958 49.5415L199.779 56.5999H203.038L211.633 36.8533H208.157ZM180.007 50.25H183.131V29.3108H180.007V50.25Z" fill="white"/>
<path d="M80.3127 17.1571C80.3127 18.5607 79.8973 19.678 79.0648 20.5121C78.1201 21.5037 76.8873 21.9995 75.3731 21.9995C73.9226 21.9995 72.6881 21.497 71.6747 20.492C70.6597 19.4853 70.1522 18.2391 70.1522 16.7517C70.1522 15.2627 70.6597 14.0165 71.6747 13.0115C72.6881 12.0048 73.9226 11.5023 75.3731 11.5023C76.0934 11.5023 76.7818 11.643 77.4351 11.9227C78.09 12.2041 78.6143 12.5776 79.0062 13.045L78.1235 13.9294C77.4585 13.1337 76.5423 12.7368 75.3715 12.7368C74.3129 12.7368 73.3983 13.1086 72.6261 13.8523C71.854 14.596 71.4687 15.5625 71.4687 16.7501C71.4687 17.9376 71.854 18.9041 72.6261 19.6478C73.3983 20.3915 74.3129 20.7634 75.3715 20.7634C76.4937 20.7634 77.43 20.3898 78.1788 19.6411C78.6645 19.1537 78.9459 18.4753 79.0213 17.606H75.3715V16.3983H80.2407C80.2909 16.6613 80.3127 16.9142 80.3127 17.1571Z" fill="white"/>
<path d="M88.0346 12.9596H83.4585V16.1455H87.5857V17.3532H83.4585V20.539H88.0346V21.7752H82.1671V11.7252H88.0346V12.9596Z" fill="white"/>
<path d="M93.4799 21.7752H92.1884V12.9596H89.3811V11.7252H96.2872V12.9596H93.4799V21.7752Z" fill="white"/>
<path d="M101.284 21.7752V11.7252H102.575V21.7752H101.284Z" fill="white"/>
<path d="M108.302 21.7752H107.011V12.9596H104.203V11.7252H111.109V12.9596H108.302V21.7752Z" fill="white"/>
<path d="M124.182 20.477C123.194 21.4921 121.966 21.9996 120.497 21.9996C119.028 21.9996 117.801 21.4921 116.814 20.477C115.826 19.462 115.333 18.2191 115.333 16.7501C115.333 15.2812 115.826 14.0383 116.814 13.0233C117.801 12.0082 119.028 11.499 120.497 11.499C121.958 11.499 123.184 12.0099 124.176 13.03C125.167 14.05 125.663 15.2895 125.663 16.7501C125.663 18.2191 125.169 19.462 124.182 20.477ZM117.767 19.6345C118.511 20.3882 119.42 20.7634 120.497 20.7634C121.574 20.7634 122.486 20.3866 123.228 19.6345C123.971 18.8807 124.345 17.9193 124.345 16.7501C124.345 15.581 123.971 14.6195 123.228 13.8658C122.486 13.112 121.574 12.7368 120.497 12.7368C119.42 12.7368 118.511 13.1137 117.767 13.8658C117.025 14.6195 116.652 15.581 116.652 16.7501C116.652 17.9193 117.025 18.8807 117.767 19.6345Z" fill="white"/>
<path d="M127.476 21.7752V11.7252H129.047L133.931 19.5424H133.986L133.931 17.6061V11.7252H135.222V21.7752H133.874L128.764 13.5777H128.708L128.764 15.514V21.7752H127.476Z" fill="white"/>
<path d="M80.3127 17.1571C80.3127 18.5607 79.8973 19.678 79.0648 20.5121C78.1201 21.5037 76.8873 21.9995 75.3731 21.9995C73.9226 21.9995 72.6881 21.497 71.6747 20.492C70.6597 19.4853 70.1522 18.2391 70.1522 16.7517C70.1522 15.2627 70.6597 14.0165 71.6747 13.0115C72.6881 12.0048 73.9226 11.5023 75.3731 11.5023C76.0934 11.5023 76.7818 11.643 77.4351 11.9227C78.09 12.2041 78.6143 12.5776 79.0062 13.045L78.1235 13.9294C77.4585 13.1337 76.5423 12.7368 75.3715 12.7368C74.3129 12.7368 73.3983 13.1086 72.6261 13.8523C71.854 14.596 71.4687 15.5625 71.4687 16.7501C71.4687 17.9376 71.854 18.9041 72.6261 19.6478C73.3983 20.3915 74.3129 20.7634 75.3715 20.7634C76.4937 20.7634 77.43 20.3898 78.1788 19.6411C78.6645 19.1537 78.9459 18.4753 79.0213 17.606H75.3715V16.3983H80.2407C80.2909 16.6613 80.3127 16.9142 80.3127 17.1571Z" stroke="white" stroke-width="0.335" stroke-miterlimit="10"/>
<path d="M88.0346 12.9596H83.4585V16.1455H87.5857V17.3532H83.4585V20.539H88.0346V21.7752H82.1671V11.7252H88.0346V12.9596Z" stroke="white" stroke-width="0.335" stroke-miterlimit="10"/>
<path d="M93.4799 21.7752H92.1884V12.9596H89.3811V11.7252H96.2872V12.9596H93.4799V21.7752Z" stroke="white" stroke-width="0.335" stroke-miterlimit="10"/>
<path d="M101.284 21.7752V11.7252H102.575V21.7752H101.284Z" stroke="white" stroke-width="0.335" stroke-miterlimit="10"/>
<path d="M108.302 21.7752H107.011V12.9596H104.203V11.7252H111.109V12.9596H108.302V21.7752Z" stroke="white" stroke-width="0.335" stroke-miterlimit="10"/>
<path d="M124.182 20.477C123.194 21.4921 121.966 21.9996 120.497 21.9996C119.028 21.9996 117.801 21.4921 116.814 20.477C115.826 19.462 115.333 18.2191 115.333 16.7501C115.333 15.2812 115.826 14.0383 116.814 13.0233C117.801 12.0082 119.028 11.499 120.497 11.499C121.958 11.499 123.184 12.0099 124.176 13.03C125.167 14.05 125.663 15.2895 125.663 16.7501C125.663 18.2191 125.169 19.462 124.182 20.477ZM117.767 19.6345C118.511 20.3882 119.42 20.7634 120.497 20.7634C121.574 20.7634 122.486 20.3866 123.228 19.6345C123.971 18.8807 124.345 17.9193 124.345 16.7501C124.345 15.581 123.971 14.6195 123.228 13.8658C122.486 13.112 121.574 12.7368 120.497 12.7368C119.42 12.7368 118.511 13.1137 117.767 13.8658C117.025 14.6195 116.652 15.581 116.652 16.7501C116.652 17.9193 117.025 18.8807 117.767 19.6345Z" stroke="white" stroke-width="0.335" stroke-miterlimit="10"/>
<path d="M127.476 21.7752V11.7252H129.047L133.931 19.5424H133.986L133.931 17.6061V11.7252H135.222V21.7752H133.874L128.764 13.5777H128.708L128.764 15.514V21.7752H127.476Z" stroke="white" stroke-width="0.335" stroke-miterlimit="10"/>
<g filter="url(#filter0_ii_1039_25904)">
<path d="M18.3678 12.6257C17.8803 13.1416 17.5922 13.9422 17.5922 14.9791V52.0234C17.5922 53.0619 17.8803 53.8608 18.3678 54.3767L18.4917 54.4973L39.2433 33.7458V33.5012V33.2567L18.4917 12.5034L18.3678 12.6257Z" fill="url(#paint0_linear_1039_25904)"/>
<path d="M46.1594 40.6656L39.2433 33.7462V33.5017V33.2571L46.161 26.3394L46.3168 26.4281L54.5126 31.0846C56.8526 32.4146 56.8526 34.5904 54.5126 35.922L46.3168 40.5785L46.1594 40.6656Z" fill="url(#paint1_linear_1039_25904)"/>
<g filter="url(#filter1_i_1039_25904)">
<path d="M46.3168 40.5767L39.2416 33.5015L18.3678 54.377C19.1383 55.1944 20.4129 55.2949 21.8484 54.4808L46.3168 40.5767Z" fill="url(#paint2_linear_1039_25904)"/>
</g>
<path d="M46.3168 26.4264L21.8484 12.5239C20.4129 11.7081 19.1383 11.8103 18.3678 12.6277L39.2433 33.5032L46.3168 26.4264Z" fill="url(#paint3_linear_1039_25904)"/>
</g>
<defs>
<filter id="filter0_ii_1039_25904" x="17.5922" y="11.9609" width="38.6753" height="43.082" filterUnits="userSpaceOnUse" color-interpolation-filters="sRGB">
<feFlood flood-opacity="0" result="BackgroundImageFix"/>
<feBlend mode="normal" in="SourceGraphic" in2="BackgroundImageFix" result="shape"/>
<feColorMatrix in="SourceAlpha" type="matrix" values="0 0 0 0 0 0 0 0 0 0 0 0 0 0 0 0 0 0 127 0" result="hardAlpha"/>
<feOffset dy="-0.25125"/>
<feComposite in2="hardAlpha" operator="arithmetic" k2="-1" k3="1"/>
<feColorMatrix type="matrix" values="0 0 0 0 0 0 0 0 0 0 0 0 0 0 0 0 0 0 0.12 0"/>
<feBlend mode="normal" in2="shape" result="effect1_innerShadow_1039_25904"/>
<feColorMatrix in="SourceAlpha" type="matrix" values="0 0 0 0 0 0 0 0 0 0 0 0 0 0 0 0 0 0 127 0" result="hardAlpha"/>
<feOffset dy="0.25125"/>
<feComposite in2="hardAlpha" operator="arithmetic" k2="-1" k3="1"/>
<feColorMatrix type="matrix" values="0 0 0 0 1 0 0 0 0 1 0 0 0 0 1 0 0 0 0.25 0"/>
<feBlend mode="normal" in2="effect1_innerShadow_1039_25904" result="effect2_innerShadow_1039_25904"/>
</filter>
<filter id="filter1_i_1039_25904" x="18.3678" y="33.5015" width="27.9491" height="21.5415" filterUnits="userSpaceOnUse" color-interpolation-filters="sRGB">
<feFlood flood-opacity="0" result="BackgroundImageFix"/>
<feBlend mode="normal" in="SourceGraphic" in2="BackgroundImageFix" result="shape"/>
<feColorMatrix in="SourceAlpha" type="matrix" values="0 0 0 0 0 0 0 0 0 0 0 0 0 0 0 0 0 0 127 0" result="hardAlpha"/>
<feOffset dy="-0.25125"/>
<feComposite in2="hardAlpha" operator="arithmetic" k2="-1" k3="1"/>
<feColorMatrix type="matrix" values="0 0 0 0 0 0 0 0 0 0 0 0 0 0 0 0 0 0 0.08 0"/>
<feBlend mode="normal" in2="shape" result="effect1_innerShadow_1039_25904"/>
</filter>
<linearGradient id="paint0_linear_1039_25904" x1="37.4038" y1="14.5871" x2="9.29396" y2="42.697" gradientUnits="userSpaceOnUse">
<stop stop-color="#00A0FF"/>
<stop offset="0.0066" stop-color="#00A1FF"/>
<stop offset="0.2601" stop-color="#00BEFF"/>
<stop offset="0.5122" stop-color="#00D2FF"/>
<stop offset="0.7604" stop-color="#00DFFF"/>
<stop offset="1" stop-color="#00E3FF"/>
</linearGradient>
<linearGradient id="paint1_linear_1039_25904" x1="57.5586" y1="33.5017" x2="17.0304" y2="33.5017" gradientUnits="userSpaceOnUse">
<stop stop-color="#FFE000"/>
<stop offset="0.4087" stop-color="#FFBD00"/>
<stop offset="0.7754" stop-color="#FFA500"/>
<stop offset="1" stop-color="#FF9C00"/>
</linearGradient>
<linearGradient id="paint2_linear_1039_25904" x1="42.4745" y1="37.3437" x2="4.35405" y2="75.4642" gradientUnits="userSpaceOnUse">
<stop stop-color="#FF3A44"/>
<stop offset="1" stop-color="#C31162"/>
</linearGradient>
<linearGradient id="paint3_linear_1039_25904" x1="13.1106" y1="0.296029" x2="30.1325" y2="17.3179" gradientUnits="userSpaceOnUse">
<stop stop-color="#32A071"/>
<stop offset="0.0685" stop-color="#2DA771"/>
<stop offset="0.4762" stop-color="#15CF74"/>
<stop offset="0.8009" stop-color="#06E775"/>
<stop offset="1" stop-color="#00F076"/>
</linearGradient>
</defs>
</svg>
