<svg width="139" height="39" viewBox="0 0 139 39" fill="none" xmlns="http://www.w3.org/2000/svg">
<path fill-rule="evenodd" clip-rule="evenodd" d="M18.9707 38.2627C22.3114 38.2629 25.4353 37.4778 27.97 36.0977C29.8724 35.0619 31.1799 34.1193 32.6227 32.6765C33.0817 32.2175 33.5099 31.7838 33.9368 31.2432C37.4627 26.7782 38.9955 21.3809 37.9352 15.6174L37.6318 14.495C37.6469 16.4144 37.8289 16.3346 37.5365 18.5305C37.373 19.759 37.0479 20.8708 36.6666 21.9332C34.4179 28.1967 28.2049 32.4969 21.2786 32.4969C9.78955 32.4969 1.92753 20.6813 6.35629 9.92466C7.7758 6.477 10.2736 3.79467 13.4537 1.96943C14.7263 1.23907 16.0431 0.745385 17.4791 0.378848L18.9335 0.0743591C19.0111 0.039229 19.0059 0.0388058 19.0479 0.00621524C16.3937 -0.0823294 13.214 0.789404 11.2214 1.71464C4.86263 4.66742 0.0159509 11.0539 3.65855e-05 19.0792C-0.00563501 21.9546 0.648546 24.7317 1.66258 26.9389C4.58785 33.3062 10.9828 38.263 18.9705 38.2625L18.9707 38.2627Z" fill="#268941"/>
<path fill-rule="evenodd" clip-rule="evenodd" d="M18.7114 2.96115C19.4356 2.9879 20.1478 2.90316 20.8714 2.98739C21.5798 3.06992 22.1804 3.1401 22.8083 3.31406C31.8272 5.81235 34.4602 16.5011 28.6523 22.8807C25.3776 26.4778 20.1428 27.8452 15.4176 25.9864C11.8022 24.5642 8.90039 21.268 8.14225 17.483C8.00817 16.8135 7.96593 16.1747 7.85783 15.5088C7.48672 16.5034 8.00647 19.4125 8.26838 20.4979C8.59285 21.8427 9.3095 23.3391 10.0099 24.4165C13.221 29.3557 19.4027 32.1843 25.5643 30.5093C28.2669 29.7745 30.779 28.3053 32.5809 26.2053C36.7779 21.314 37.3719 14.7975 34.0621 9.31943C31.9273 5.78594 27.9076 3.12782 23.7898 2.67063C22.3093 2.50623 19.959 2.49599 18.7113 2.96123L18.7114 2.96115Z" fill="#2FA942"/>
<path fill-rule="evenodd" clip-rule="evenodd" d="M19.5381 24.8489C18.6996 24.5193 18.7257 24.7045 17.3194 24.029C15.4631 23.1374 13.7221 20.9709 13.2068 18.9112C12.3588 15.5222 13.3739 12.15 16.0128 10.0774C17.1403 9.19197 18.5232 8.47497 20.3476 8.25666C23.6687 7.85914 26.9474 9.60007 28.5503 12.3593C28.8725 12.9139 29.2686 13.8033 29.4436 14.5413C29.5439 14.9641 29.6184 15.418 29.6647 15.8559C29.694 16.1329 29.6578 17.2173 29.6856 17.2936C30.0081 16.8819 29.967 14.5852 29.8945 13.9239C29.5714 10.9816 27.849 8.47946 25.5209 6.92494C21.8779 4.4925 17.1821 4.9855 14.0661 7.47051C11.2924 9.68243 9.37064 13.9818 10.9628 18.4048C11.6108 20.205 12.8201 21.8111 14.1454 22.8035C14.5148 23.0802 14.8263 23.3032 15.2588 23.5624C15.6345 23.7876 16.1154 24.0234 16.548 24.1968C17.0613 24.4024 19.1779 25.0275 19.5381 24.849V24.8489Z" fill="#A3DFAB"/>
<path d="M45.8864 26.1313V14.254H48.3576V19.3876H52.981V14.254H55.4521V26.1313H52.981V21.5398H48.3576V26.1313H45.8864ZM63.5099 26.3227C62.6171 26.3227 61.7881 26.1685 61.0228 25.8603C60.2576 25.5521 59.588 25.1216 59.0141 24.569C58.4507 24.0056 58.0097 23.352 57.6908 22.608C57.372 21.864 57.2125 21.0562 57.2125 20.1847C57.2125 19.3132 57.3666 18.5054 57.6749 17.7614C57.9937 17.0174 58.4348 16.3691 58.9981 15.8164C59.5721 15.2637 60.2417 14.8332 61.0069 14.525C61.7722 14.2168 62.6065 14.0627 63.5099 14.0627C64.4133 14.0627 65.2477 14.2168 66.0129 14.525C66.7782 14.8332 67.4425 15.2637 68.0058 15.8164C68.5797 16.3691 69.0208 17.0174 69.329 17.7614C69.6479 18.5054 69.8073 19.3132 69.8073 20.1847C69.8073 21.0562 69.6479 21.864 69.329 22.608C69.0102 23.352 68.5638 24.0056 67.9898 24.569C67.4265 25.1216 66.7622 25.5521 65.997 25.8603C65.2317 26.1685 64.4027 26.3227 63.5099 26.3227ZM63.5099 24.0907C64.052 24.0907 64.5515 23.995 65.0085 23.8037C65.4762 23.6124 65.8854 23.3467 66.2361 23.0066C66.5869 22.6558 66.8579 22.2413 67.0492 21.763C67.2405 21.2847 67.3362 20.7586 67.3362 20.1847C67.3362 19.6108 67.2405 19.09 67.0492 18.6223C66.8579 18.144 66.5869 17.7295 66.2361 17.3788C65.8854 17.028 65.4762 16.7623 65.0085 16.5816C64.5515 16.3903 64.052 16.2947 63.5099 16.2947C62.9679 16.2947 62.463 16.3903 61.9954 16.5816C61.5383 16.7623 61.1344 17.028 60.7837 17.3788C60.433 17.7295 60.1619 18.144 59.9706 18.6223C59.7793 19.09 59.6837 19.6108 59.6837 20.1847C59.6837 20.7586 59.7793 21.2847 59.9706 21.763C60.1619 22.2413 60.433 22.6558 60.7837 23.0066C61.1344 23.3467 61.5383 23.6124 61.9954 23.8037C62.463 23.995 62.9679 24.0907 63.5099 24.0907ZM71.5599 26.1313V14.254H73.9513L78.3994 20.1528H77.2834L81.6039 14.254H83.9953V26.1313H81.5241V16.9802L82.5126 17.2034L77.937 23.1022H77.6182L73.202 17.2034L74.031 16.9802V26.1313H71.5599ZM86.1015 26.1313V14.254H94.0888V16.4063H88.5726V19.1006H93.7699V21.2529H88.5726V23.9791H94.0888V26.1313H86.1015ZM95.4896 26.1313V14.254H97.9608V23.9791H102.983V26.1313H95.4896ZM103.331 26.1313L107.349 14.254H110.633L114.651 26.1313H111.957L111.159 23.708H106.807L106.01 26.1313H103.331ZM107.493 21.5558H110.474L108.656 15.9439H109.326L107.493 21.5558ZM115.885 26.1313V14.254H117.782L124.159 22.6558L123.139 22.895V14.254H125.61V26.1313H123.697L117.432 17.6657L118.356 17.4266V26.1313H115.885ZM127.718 26.1313V14.254H131.592C132.878 14.254 133.994 14.5091 134.94 15.0192C135.886 15.5294 136.619 16.2309 137.14 17.1237C137.661 18.0165 137.921 19.0368 137.921 20.1847C137.921 21.3326 137.661 22.3582 137.14 23.2616C136.619 24.1544 135.886 24.8559 134.94 25.3661C133.994 25.8763 132.878 26.1313 131.592 26.1313H127.718ZM130.189 23.9791H131.656C132.431 23.9791 133.101 23.825 133.664 23.5167C134.228 23.1979 134.663 22.7568 134.972 22.1935C135.291 21.6195 135.45 20.9499 135.45 20.1847C135.45 19.4088 135.291 18.7392 134.972 18.1759C134.663 17.6126 134.228 17.1768 133.664 16.8686C133.101 16.5604 132.431 16.4063 131.656 16.4063H130.189V23.9791Z" fill="#217930"/>
</svg>
